<svg width="130" height="44" viewBox="0 0 130 44" fill="none" xmlns="http://www.w3.org/2000/svg">
<path d="M51.5 29V15.26H59.9C60.6067 15.26 61.2467 15.4 61.82 15.68C62.3933 15.96 62.8467 16.3533 63.18 16.86C63.5267 17.3667 63.7 17.96 63.7 18.64C63.7 19.24 63.5933 19.7533 63.38 20.18C63.18 20.6067 62.9067 20.9533 62.56 21.22C62.2267 21.4867 61.8467 21.6867 61.42 21.82V21.9C61.9133 22.0067 62.36 22.2 62.76 22.48C63.16 22.7467 63.4733 23.1133 63.7 23.58C63.94 24.0467 64.06 24.6133 64.06 25.28C64.06 26.0667 63.8733 26.74 63.5 27.3C63.1267 27.8467 62.6333 28.2667 62.02 28.56C61.4067 28.8533 60.72 29 59.96 29H51.5ZM55.08 26.24H58.98C59.4067 26.24 59.7467 26.1133 60 25.86C60.2667 25.6067 60.4 25.22 60.4 24.7C60.4 24.42 60.34 24.1733 60.22 23.96C60.1133 23.7333 59.9467 23.56 59.72 23.44C59.5067 23.32 59.24 23.26 58.92 23.26H55.08V26.24ZM55.08 20.72H58.66C58.9533 20.72 59.2 20.66 59.4 20.54C59.6133 20.42 59.7733 20.2533 59.88 20.04C60 19.8267 60.06 19.5733 60.06 19.28C60.06 18.8533 59.9333 18.52 59.68 18.28C59.4267 18.04 59.1067 17.92 58.72 17.92H55.08V20.72ZM67.1423 17.04V14.52H70.4223V17.04H67.1423ZM67.1423 29V18.46H70.4223V29H67.1423ZM77.7441 29.24C76.8507 29.24 76.0774 29.04 75.4241 28.64C74.7707 28.24 74.2707 27.6333 73.9241 26.82C73.5774 26.0067 73.4041 24.9667 73.4041 23.7C73.4041 22.46 73.5774 21.44 73.9241 20.64C74.2841 19.8267 74.7841 19.22 75.4241 18.82C76.0641 18.42 76.8174 18.22 77.6841 18.22C78.0974 18.22 78.4907 18.2667 78.8641 18.36C79.2507 18.4533 79.5907 18.6 79.8841 18.8C80.1907 19 80.4507 19.2467 80.6641 19.54H80.7841V14.52H84.0641V29H81.3841L81.1441 27.54H81.0041C80.6441 28.1133 80.1841 28.54 79.6241 28.82C79.0641 29.1 78.4374 29.24 77.7441 29.24ZM78.7641 26.68C79.2441 26.68 79.6307 26.5733 79.9241 26.36C80.2307 26.1333 80.4507 25.82 80.5841 25.42C80.7307 25.0067 80.8041 24.5267 80.8041 23.98V23.5C80.8041 23.1 80.7641 22.7333 80.6841 22.4C80.6041 22.0667 80.4841 21.78 80.3241 21.54C80.1641 21.3 79.9507 21.1133 79.6841 20.98C79.4307 20.8467 79.1241 20.78 78.7641 20.78C78.2707 20.78 77.8707 20.88 77.5641 21.08C77.2707 21.28 77.0574 21.5733 76.9241 21.96C76.7907 22.3467 76.7241 22.8267 76.7241 23.4V24.1C76.7241 24.66 76.7907 25.1333 76.9241 25.52C77.0574 25.9067 77.2707 26.2 77.5641 26.4C77.8707 26.5867 78.2707 26.68 78.7641 26.68ZM99.2094 29.24C97.7027 29.24 96.4094 28.98 95.3294 28.46C94.2627 27.9267 93.4427 27.1333 92.8694 26.08C92.296 25.0267 92.0094 23.7067 92.0094 22.12C92.0094 20.5333 92.296 19.22 92.8694 18.18C93.4427 17.1267 94.2627 16.34 95.3294 15.82C96.4094 15.2867 97.7027 15.02 99.2094 15.02C100.716 15.02 102.003 15.2867 103.069 15.82C104.149 16.34 104.976 17.1267 105.549 18.18C106.123 19.22 106.409 20.5333 106.409 22.12C106.409 23.7067 106.123 25.0267 105.549 26.08C104.976 27.1333 104.149 27.9267 103.069 28.46C102.003 28.98 100.716 29.24 99.2094 29.24ZM99.2094 26.44C99.7827 26.44 100.289 26.3533 100.729 26.18C101.169 26.0067 101.536 25.7533 101.829 25.42C102.136 25.0867 102.363 24.68 102.509 24.2C102.656 23.72 102.729 23.18 102.729 22.58V21.7C102.729 21.0867 102.656 20.54 102.509 20.06C102.363 19.58 102.136 19.1733 101.829 18.84C101.536 18.5067 101.169 18.2533 100.729 18.08C100.289 17.9067 99.7827 17.82 99.2094 17.82C98.6227 17.82 98.1094 17.9067 97.6694 18.08C97.2294 18.2533 96.8627 18.5067 96.5694 18.84C96.276 19.1733 96.056 19.58 95.9094 20.06C95.7627 20.54 95.6894 21.0867 95.6894 21.7V22.58C95.6894 23.18 95.7627 23.72 95.9094 24.2C96.056 24.68 96.276 25.0867 96.5694 25.42C96.8627 25.7533 97.2294 26.0067 97.6694 26.18C98.1094 26.3533 98.6227 26.44 99.2094 26.44ZM113.041 29.24C111.907 29.24 111.027 28.9267 110.401 28.3C109.787 27.6733 109.481 26.7133 109.481 25.42V18.46H112.761V24.96C112.761 25.24 112.794 25.4867 112.861 25.7C112.941 25.9133 113.047 26.0933 113.181 26.24C113.314 26.3867 113.481 26.4933 113.681 26.56C113.894 26.6267 114.121 26.66 114.361 26.66C114.747 26.66 115.087 26.5733 115.381 26.4C115.674 26.2133 115.907 25.9667 116.081 25.66C116.254 25.34 116.341 24.9933 116.341 24.62V18.46H119.621V29H116.921L116.721 27.5H116.581C116.341 27.8467 116.034 28.1533 115.661 28.42C115.301 28.6867 114.894 28.8867 114.441 29.02C114.001 29.1667 113.534 29.24 113.041 29.24ZM126.819 29.24C126.139 29.24 125.559 29.14 125.079 28.94C124.612 28.7267 124.259 28.4133 124.019 28C123.792 27.5867 123.679 27.0867 123.679 26.5V20.84H122.299V18.46H123.779L124.459 15.38H126.939V18.46H128.999V20.84H126.939V25.7C126.939 26.0733 127.012 26.36 127.159 26.56C127.306 26.76 127.572 26.86 127.959 26.86H128.999V28.9C128.826 28.9533 128.606 29.0067 128.339 29.06C128.086 29.1267 127.826 29.1733 127.559 29.2C127.292 29.2267 127.046 29.24 126.819 29.24Z" fill="white"/>
<path d="M39.6355 32.145C39.6228 32.8706 39.2181 33.5324 38.5779 33.8742L20.595 43.4768C19.9857 43.8022 19.2515 43.7901 18.6532 43.4448L1.02058 33.2685C0.390782 32.9051 0.00788356 32.2284 0.0205889 31.5014L0.363916 11.8551C0.376597 11.1294 0.78137 10.4676 1.42156 10.1258L19.405 0.523167C20.0143 0.197793 20.7485 0.209899 21.3468 0.555188L38.9794 10.7314C39.6092 11.0949 39.9921 11.7716 39.9794 12.4987L39.6355 32.145Z" fill="white"/>
<path d="M21.25 30.0645H20.625L15.625 24.9032H21.25C22.2833 24.9032 23.1667 24.5247 23.9 23.7677C24.6333 23.0108 25 22.0989 25 21.0323C25 19.9656 24.6333 19.0538 23.9 18.2968C23.1667 17.5398 22.2833 17.1613 21.25 17.1613H15V32L10 26.8387V14C10 12.8954 10.8954 12 12 12H21.25C23.6667 12 25.7292 12.8817 27.4375 14.6452C29.1458 16.4086 30 18.5376 30 21.0323C30 23.5269 29.1458 25.6559 27.4375 27.4194C25.7292 29.1828 23.6667 30.0645 21.25 30.0645Z" fill="#5ECC76"/>
</svg>
