<svg width="40" height="36" viewBox="0 0 40 36" fill="none" xmlns="http://www.w3.org/2000/svg">
<rect width="40" height="36" rx="5" fill="white"/>
<g clip-path="url(#clip0_366_338)">
<path d="M20.2037 6.41949C20.7787 6.97882 20.7787 7.88772 20.2037 8.44704L10.5395 17.8623C9.9645 18.4217 9.03018 18.4217 8.45521 17.8623C7.88025 17.303 7.88025 16.3941 8.45521 15.8348L18.1194 6.41949C18.6944 5.86017 19.6287 5.86017 20.2037 6.41949Z" fill="#348F8D"/>
<path d="M31.5448 18.1373C32.1198 18.6966 32.1198 19.6055 31.5448 20.1648L21.8758 29.5801C21.3008 30.1394 20.3665 30.1394 19.7915 29.5801C19.2165 29.0208 19.2165 28.1119 19.7915 27.5525L29.4606 18.1373C30.0355 17.5779 30.9698 17.5779 31.5448 18.1373Z" fill="#7ABDC1"/>
<path d="M29.2066 7.28168C29.8343 7.89228 29.8343 8.88508 29.2066 9.49568L25.2537 13.3457C24.6261 13.9563 23.6055 13.9563 22.9778 13.3457C22.3502 12.7351 22.3502 11.7423 22.9778 11.1317L26.9307 7.28168C27.5584 6.67108 28.5789 6.67108 29.2066 7.28168Z" fill="#348F8D"/>
<path d="M17.0414 22.6771C17.6691 23.2877 17.6691 24.2805 17.0414 24.8911L13.0933 28.7457C12.4657 29.3563 11.4451 29.3563 10.8174 28.7457C10.1898 28.1351 10.1898 27.1423 10.8174 26.5318L14.7703 22.6818C15.3932 22.0665 16.4138 22.0665 17.0414 22.6771Z" fill="#7ABDC1"/>
<path d="M14.8085 22.6118C15.4074 22.0291 16.3753 22.0291 16.9742 22.6118L21.9189 27.4173C22.5178 28 22.5178 28.9415 21.9189 29.5241C21.32 30.1068 20.3521 30.1068 19.7532 29.5241L14.8085 24.7186C14.2143 24.1359 14.2096 23.1944 14.8085 22.6118Z" fill="#7ABDC1"/>
<path d="M18.0858 6.45211C18.6847 5.86948 19.6526 5.86948 20.2515 6.45211L25.1962 11.2576C25.7951 11.8403 25.7951 12.7818 25.1962 13.3644C24.5973 13.9471 23.6294 13.9471 23.0305 13.3644L18.0906 8.5589C17.4917 7.97627 17.4917 7.03474 18.0858 6.45211Z" fill="#348F8D"/>
<path d="M8.41685 15.8718C8.97265 15.3311 9.86863 15.3311 10.4244 15.8718L13.3376 18.701C13.8934 19.2417 13.8934 20.1133 13.3376 20.654C12.7818 21.1947 11.8858 21.1947 11.33 20.654L8.41685 17.8294C7.86105 17.2888 7.86105 16.4125 8.41685 15.8718Z" fill="#348F8D"/>
<path d="M26.6624 15.3455C27.2182 14.8048 28.1142 14.8048 28.67 15.3455L31.5832 18.1747C32.139 18.7154 32.139 19.587 31.5832 20.1277C31.0274 20.6684 30.1314 20.6684 29.5756 20.1277L26.6624 17.2984C26.1066 16.7578 26.1066 15.8861 26.6624 15.3455Z" fill="#7ABDC1"/>
<path d="M23.3325 10.5874L23.3605 9.86545L24.7251 9.9155L24.6971 10.6374L23.3325 10.5874Z" fill="#348F8D"/>
<path d="M18.5315 9.70312L18.5595 8.98116L19.924 9.03121L19.8961 9.75317L18.5315 9.70312Z" fill="#348F8D"/>
<path d="M11.0952 16.2275L11.8376 16.2071L11.8762 17.535L11.1338 17.5554L11.0952 16.2275Z" fill="#348F8D"/>
<path d="M28.2483 18.3481L28.9906 18.3277L29.0292 19.6556L28.2869 19.676L28.2483 18.3481Z" fill="#7ABDC1"/>
<path d="M20.1082 26.9355L20.1634 26.2151L21.5252 26.3139L21.4699 27.0344L20.1082 26.9355Z" fill="#7ABDC1"/>
<path d="M15.2832 26.0283L15.3384 25.3079L16.7002 25.4067L16.645 26.1271L15.2832 26.0283Z" fill="#7ABDC1"/>
</g>
<defs>
<clipPath id="clip0_366_338">
<rect width="24" height="24" fill="white" transform="translate(8 6)"/>
</clipPath>
</defs>
</svg>
