<svg width="40" height="36" viewBox="0 0 40 36" fill="none" xmlns="http://www.w3.org/2000/svg">
<rect width="40" height="36" rx="5" fill="white"/>
<path d="M17.4207 12.096C17.2023 12.1604 16.996 12.3329 16.9038 12.5353C16.8529 12.6411 16.6393 13.883 15.6275 19.9751C14.9578 23.9974 14.4119 27.3435 14.4119 27.4102C14.4119 27.6172 14.5477 27.7989 14.7467 27.8518C14.8074 27.8679 15.4237 27.8748 16.6806 27.8702L18.5247 27.8633L18.9687 25.1955C19.3812 22.7164 19.4176 22.5186 19.4856 22.3852C19.5656 22.2288 19.6918 22.1093 19.8689 22.0288C19.9781 21.9759 19.9975 21.9759 21.2544 21.9621C22.5065 21.946 22.8705 21.9299 23.4019 21.8586C25.7143 21.5504 27.3206 20.435 28.1698 18.5515C28.4076 18.0226 28.6211 17.3096 28.7425 16.6289C28.8274 16.1459 28.8492 15.4698 28.791 15.0927C28.7134 14.5913 28.5386 14.1681 28.2402 13.7496C28.0364 13.4667 27.6142 13.0666 27.3351 12.8941C26.629 12.4548 25.6876 12.1949 24.4743 12.1006C24.1128 12.0708 17.5177 12.0685 17.4207 12.096Z" fill="#179BD7"/>
<path opacity="0.95" d="M13.7237 7.02586C13.4535 7.10607 13.1982 7.32091 13.0841 7.57299C13.021 7.70477 12.7568 9.25164 11.5045 16.8399C10.6757 21.8501 10 26.018 10 26.1011C10 26.3589 10.1682 26.5852 10.4144 26.6511C10.4895 26.6712 11.2523 26.6798 12.8078 26.674L15.0901 26.6654L15.6396 23.3425C16.1502 20.2545 16.1952 20.0082 16.2793 19.842C16.3784 19.6472 16.5345 19.4983 16.7538 19.398C16.8889 19.3321 16.9129 19.3321 18.4685 19.3149C20.018 19.2949 20.4685 19.2748 21.1261 19.186C23.988 18.8022 25.976 17.4128 27.027 15.0667C27.3213 14.4079 27.5856 13.5199 27.7357 12.672C27.8408 12.0704 27.8679 11.2282 27.7958 10.7584C27.6997 10.1339 27.4835 9.60685 27.1141 9.08549C26.8619 8.73315 26.3393 8.23471 25.994 8.01987C25.1201 7.47273 23.955 7.14904 22.4535 7.03159C22.006 6.99435 13.8438 6.99148 13.7237 7.02586Z" fill="#253B80"/>
</svg>
