<svg width="40" height="36" viewBox="0 0 40 36" fill="none" xmlns="http://www.w3.org/2000/svg">
<rect width="40" height="36" rx="5" fill="white"/>
<path fill-rule="evenodd" clip-rule="evenodd" d="M19.87 24.5769C21.437 26.0208 23.5413 26.8965 25.8302 26.8965C30.7459 26.8965 34.7246 22.8872 34.7246 17.9559C34.7246 13.0096 30.7459 9 25.8302 9C23.5413 9 21.437 9.87561 19.87 11.3196C18.0727 12.9633 16.9358 15.329 16.9358 17.9559C16.936 20.5827 18.0727 22.9486 19.87 24.5769Z" fill="#E9B040"/>
<path fill-rule="evenodd" clip-rule="evenodd" d="M22.7427 17.0036C22.712 16.6811 22.6505 16.3739 22.589 16.0512H17.1509C17.2124 15.7286 17.3046 15.4214 17.3967 15.1141H22.3279C22.2209 14.7907 22.0979 14.4728 21.9593 14.1616H17.7809C17.9345 13.8362 18.1037 13.5184 18.2878 13.2092H21.4371C21.2345 12.8811 21.0087 12.5679 20.7613 12.2721H18.9638C19.2419 11.9325 19.5448 11.6142 19.8702 11.3196C18.288 9.89098 16.1987 9 13.8944 9C8.99403 9 5 13.0096 5 17.9559C5 22.8872 8.99403 26.8965 13.8944 26.8965C16.1987 26.8965 18.2878 26.0208 19.8702 24.5769C20.1905 24.2875 20.4885 23.9742 20.7613 23.6396H18.9638C18.7179 23.3325 18.503 23.0253 18.2878 22.6872H21.4371C21.6352 22.3834 21.8098 22.065 21.9595 21.7347H17.7809C17.6425 21.4276 17.5044 21.1204 17.3967 20.7975H22.3279C22.4353 20.4903 22.5124 20.1679 22.5888 19.845C22.6503 19.5379 22.7118 19.2155 22.7425 18.8926C22.7737 18.5811 22.7891 18.2683 22.7888 17.9553C22.7888 17.6333 22.7734 17.3108 22.7427 17.0036Z" fill="#CC2131"/>
<path fill-rule="evenodd" clip-rule="evenodd" d="M25.7538 15.8973L25.5846 16.8805C25.2467 16.7115 25.0008 16.6348 24.7244 16.6348C24.0023 16.6348 23.4955 17.3414 23.4955 18.3399C23.4955 19.0313 23.8334 19.4459 24.402 19.4459C24.6322 19.4459 24.9088 19.3692 25.216 19.2157L25.0471 20.2446C24.6936 20.3369 24.4633 20.3831 24.202 20.3831C23.1576 20.3831 22.5123 19.6303 22.5123 18.4169C22.5123 16.8039 23.4033 15.667 24.6783 15.667C24.8471 15.667 25.0006 15.6824 25.1236 15.7131L25.5078 15.8053C25.6309 15.8514 25.6616 15.8668 25.7538 15.8973ZM22.6506 16.5733H22.5584C22.236 16.5733 22.0516 16.727 21.7596 17.1723L21.8518 16.6039H20.9761L20.3772 20.2907H21.3452C21.6983 18.0326 21.7906 17.6486 22.2514 17.6486H22.3129C22.4051 17.2031 22.5278 16.8803 22.6815 16.5885L22.6506 16.5733ZM17.0898 20.2446C16.8287 20.3369 16.6136 20.3676 16.3986 20.3676C15.907 20.3676 15.6304 20.0911 15.6304 19.5536C15.6304 19.4614 15.6457 19.3387 15.6611 19.2309L15.7226 18.8623L15.7687 18.5706L16.1834 16.051H17.1359L17.0283 16.6041H17.5199L17.397 17.5104H16.9054L16.6443 19.0467C16.6289 19.1081 16.6289 19.1544 16.6289 19.2003C16.6289 19.3848 16.7211 19.4616 16.9515 19.4616C17.059 19.4616 17.1511 19.4616 17.2125 19.4309L17.0898 20.2446ZM13.3876 17.7715C13.3876 18.2325 13.6025 18.5549 14.1095 18.8008C14.5089 18.9852 14.5703 19.0465 14.5703 19.2002C14.5703 19.4307 14.4013 19.5381 14.0173 19.5381C13.7255 19.5381 13.4642 19.4922 13.157 19.4L13.0187 20.2446L13.0648 20.2602L13.2339 20.2909C13.2952 20.3061 13.3722 20.3217 13.495 20.3217C13.7099 20.3524 13.8943 20.3524 14.0173 20.3524C15.031 20.3524 15.5074 19.9682 15.5074 19.1235C15.5074 18.6164 15.3078 18.3244 14.8316 18.0942C14.4168 17.9098 14.3707 17.8639 14.3707 17.6948C14.3707 17.4952 14.5398 17.403 14.847 17.403C15.0314 17.403 15.2925 17.4184 15.5383 17.4491L15.6765 16.6043C15.4308 16.5582 15.0467 16.5274 14.8316 16.5274C13.7562 16.5272 13.3722 17.0957 13.3876 17.7715ZM33.1122 20.2909H32.2057L32.2519 19.9375C31.9907 20.2139 31.7141 20.3369 31.3606 20.3369C30.654 20.3369 30.1932 19.738 30.1932 18.8163C30.1932 17.5873 30.9153 16.5426 31.76 16.5426C32.1442 16.5426 32.4206 16.7116 32.6821 17.0496L32.897 15.7592H33.8495L33.1122 20.2909ZM31.6987 19.4307C32.1444 19.4307 32.4515 18.9084 32.4515 18.1862C32.4515 17.71 32.2823 17.4641 31.9444 17.4641C31.5143 17.4641 31.1919 17.9711 31.1919 18.6932C31.1919 19.185 31.3608 19.4307 31.6987 19.4307ZM20.0392 20.2139C19.7011 20.3217 19.3939 20.3676 19.0406 20.3676C17.9652 20.3676 17.4121 19.7993 17.4121 18.7086C17.4121 17.4489 18.1189 16.5119 19.0867 16.5119C19.8855 16.5119 20.3923 17.0342 20.3923 17.8483C20.3923 18.125 20.3615 18.3862 20.2693 18.77H18.3648C18.3494 18.8163 18.3494 18.8471 18.3494 18.8778C18.3494 19.3079 18.6414 19.5229 19.1943 19.5229C19.5476 19.5229 19.8547 19.4614 20.1928 19.2924L20.0392 20.2139ZM19.5015 18.0172V17.833C19.5015 17.5258 19.3324 17.3567 19.0406 17.3567C18.7334 17.3567 18.5183 17.5873 18.4261 18.0172H19.5015ZM9.71607 20.2909H8.76362L9.31669 16.8037L8.07243 20.2909H7.41179L7.33495 16.8344L6.75133 20.2909H5.86035L6.61302 15.7592H7.99559L8.04169 18.5704L8.96322 15.7592H10.4687L9.71607 20.2909ZM12.0972 18.6471C12.005 18.6471 11.9589 18.6319 11.882 18.6319C11.3443 18.6319 11.0679 18.8315 11.0679 19.2002C11.0679 19.4307 11.1908 19.5688 11.4058 19.5688C11.8052 19.5688 12.0818 19.2002 12.0972 18.6471ZM12.8038 20.2909H12.0048L12.0202 19.9067C11.7743 20.2139 11.4517 20.3524 11.0063 20.3524C10.4839 20.3524 10.1306 19.953 10.1306 19.3538C10.1306 18.4477 10.745 17.9254 11.8204 17.9254C11.928 17.9254 12.0663 17.9407 12.2198 17.9559C12.2505 17.8331 12.2505 17.787 12.2505 17.7256C12.2505 17.4799 12.0815 17.3877 11.636 17.3877C11.3595 17.3877 11.0522 17.4184 10.8372 17.4799L10.6989 17.526L10.6067 17.5413L10.745 16.7118C11.2212 16.5735 11.5438 16.5274 11.8972 16.5274C12.7267 16.5274 13.1722 16.8961 13.1722 17.6026C13.1722 17.787 13.1569 17.9254 13.0954 18.3401L12.8802 19.646L12.8495 19.8762L12.8341 20.0606L12.8188 20.1991L12.8038 20.2909ZM27.3055 18.6471C27.1977 18.6471 27.1518 18.6319 27.0905 18.6319C26.5374 18.6319 26.2606 18.8315 26.2606 19.2002C26.2606 19.4307 26.3991 19.5688 26.6141 19.5688C26.9983 19.5688 27.2899 19.2002 27.3055 18.6471ZM28.012 20.2909H27.2133L27.2284 19.9067C26.9827 20.2139 26.6602 20.3524 26.2147 20.3524C25.6924 20.3524 25.3389 19.953 25.3389 19.3538C25.3389 18.4477 25.9533 17.9254 27.0287 17.9254C27.1364 17.9254 27.2747 17.9407 27.4129 17.9559C27.4436 17.8331 27.4591 17.787 27.4591 17.7256C27.4591 17.4799 27.2899 17.3877 26.8448 17.3877C26.568 17.3877 26.2456 17.4184 26.0305 17.4799L25.9075 17.526L25.8153 17.5413L25.9534 16.7118C26.4299 16.5735 26.7522 16.5274 27.1057 16.5274C27.9352 16.5274 28.3653 16.8961 28.3653 17.6026C28.3653 17.787 28.3653 17.9254 28.2886 18.3401L28.0889 19.646L28.0581 19.8762L28.0274 20.0606L28.0122 20.1991V20.2909H28.012ZM30.5928 16.5733H30.5005C30.1782 16.5733 29.9938 16.727 29.7018 17.1723L29.794 16.6039H28.9182L28.3344 20.2907H29.2868C29.6403 18.0326 29.7325 17.6486 30.1934 17.6486H30.2548C30.347 17.2031 30.4698 16.8803 30.6235 16.5885L30.5928 16.5733Z" fill="white"/>
</svg>
