<svg width="40" height="36" viewBox="0 0 40 36" fill="none" xmlns="http://www.w3.org/2000/svg">
<rect width="40" height="36" rx="5" fill="white"/>
<path d="M17.8879 22.4841H15.4621L16.9782 13.1665H19.4043L17.8879 22.4841ZM13.4213 13.1665L11.1086 19.5752L10.8349 18.1951L10.8352 18.1956L10.0189 14.0054C10.0189 14.0054 9.92024 13.1665 8.8682 13.1665H5.04486L5 13.3243C5 13.3243 6.16918 13.5675 7.53751 14.3893L9.64508 22.4843H12.1726L16.0321 13.1665H13.4213ZM32.5018 22.4841H34.7293L32.7872 13.1662H30.8372C29.9367 13.1662 29.7173 13.8606 29.7173 13.8606L26.0994 22.4841H28.6281L29.1339 21.1H32.2177L32.5018 22.4841ZM29.8325 19.1881L31.1071 15.7013L31.8241 19.1881H29.8325ZM26.289 15.4072L26.6352 13.4063C26.6352 13.4063 25.567 13 24.4534 13C23.2496 13 20.3908 13.5261 20.3908 16.0846C20.3908 18.4917 23.746 18.5217 23.746 19.786C23.746 21.0504 20.7365 20.8239 19.7433 20.0266L19.3826 22.1187C19.3826 22.1187 20.4658 22.6448 22.1208 22.6448C23.7762 22.6448 26.2736 21.7877 26.2736 19.4548C26.2736 17.0322 22.8882 16.8066 22.8882 15.7533C22.8884 14.6998 25.251 14.8352 26.289 15.4072Z" fill="#2566AF"/>
<path d="M10.8352 18.1957L10.0189 14.0054C10.0189 14.0054 9.92025 13.1665 8.8682 13.1665H5.04486L5 13.3243C5 13.3243 6.83765 13.7051 8.60027 15.132C10.2856 16.4958 10.8352 18.1957 10.8352 18.1957Z" fill="#E6A540"/>
</svg>
